<?xml version="1.0" encoding="UTF-8" standalone="no"?>
<!DOCTYPE svg PUBLIC "-//W3C//DTD SVG 1.1//EN" "http://www.w3.org/Graphics/SVG/1.1/DTD/svg11.dtd">
<svg width="100%" height="100%" viewBox="0 0 852 150" version="1.1" xmlns="http://www.w3.org/2000/svg" xmlns:xlink="http://www.w3.org/1999/xlink" xml:space="preserve" xmlns:serif="http://www.serif.com/" style="fill-rule:evenodd;clip-rule:evenodd;stroke-linejoin:round;stroke-miterlimit:2;">
    <g transform="matrix(0.290956,0,0,0.291558,-14832.5,-1677.69)">
        <path d="M52705.2,5754.22L52705.2,5856.45L52554.2,5856.45L52554.2,6265.3L52452.1,6265.3L52452.1,5856.45L52298.7,5856.45L52298.7,5754.22L52705.2,5754.22ZM51643.1,5754.23L51643.1,6265.3L51540.9,6265.3L51540.9,5754.23L51643.1,5754.23ZM51140,6265.3C50998.9,6265.3 50978.7,6150.81 50978.7,6009.77L50978.7,5754.23L51080.9,5754.23L51080.9,6009.77C51080.9,6094.39 51093,6153.48 51140,6163.09L51438.7,6163.09L51438.7,6265.3L51140,6265.3ZM51849.7,5984.21L52128.6,5984.21L52103.1,6086.43L51847.6,6086.43L51847.6,6265.3L51745.3,6265.3L51745.3,6009.77C51745.3,5868.73 51859.8,5754.23 52000.9,5754.23L52222.6,5756.65L52219.1,5858.86L52000.9,5856.45C51925,5856.45 51861.9,5911.74 51849.7,5984.21ZM53905.8,5754.22L53905.8,5856.45L53754.9,5856.45L53754.9,6265.3L53652.7,6265.3L53652.7,5856.45L53499.4,5856.45L53499.4,5754.22L53905.8,5754.22ZM53417.4,5754.23L53417.4,6265.3L53315.2,6265.3L53315.2,5754.23L53417.4,5754.23ZM52881.6,6020.93L52881.6,6265.3L52779.4,6265.3L52779.4,5754.23L52881.6,5754.23L52881.6,5998.59L53118.8,5754.22L53252.1,5754.22L53004,6009.76L53252.1,6265.3L53118.8,6265.3L52881.6,6020.93Z" style="fill:rgb(5,48,134);"/>
    </g>
</svg>
